<?xml version="1.0" encoding="UTF-8"?><svg id="a" xmlns="http://www.w3.org/2000/svg" viewBox="0 0 512 512"><defs><style>.b{fill:#fff;}</style></defs><circle cx="256" cy="256" r="256"/><path class="b" d="M255.76,44.76c-6.18,0-12.35,1.38-17.14,4.15l-152.75,88.36c-9.57,5.54-9.57,14.29,0,19.83l152.75,88.36c9.57,5.54,24.7,5.54,34.27,0l152.75-88.36c9.57-5.54,9.57-14.29,0-19.82l-152.75-88.36c-4.79-2.77-10.96-4.15-17.13-4.15h0ZM138.45,127.37h0c7.98.21,15.55,2.18,21.19,5.54,12.48,7.4,12.48,19.41,0,26.81-12.48,7.4-32.71,7.4-45.19,0h0c-12.48-7.4-12.48-19.41,0-26.81,6.34-3.76,15.04-5.77,23.99-5.53h0ZM256.69,127.62c17.65.16,31.74,8.77,31.48,19.24-.12,4.93-3.48,9.64-9.35,13.12-12.36,7.47-32.59,7.58-45.19.25-12.59-7.34-12.78-19.34-.42-26.81.14-.08.28-.17.42-.25,6.11-3.62,14.43-5.63,23.06-5.55h0ZM376.35,127.63h0c7.98.21,15.54,2.18,21.2,5.54,12.42,7.44,12.33,19.44-.2,26.81-12.46,7.33-32.53,7.32-44.99,0-12.48-7.41-12.47-19.41,0-26.81,6.34-3.76,15.04-5.77,23.99-5.53h0ZM75.67,173.84c-5.75-.15-9.66,4.34-9.66,12.28v157.7c0,11.05,7.57,24.16,17.14,29.69l146.93,84.85c9.57,5.53,17.14,1.16,17.14-9.89v-157.7c0-11.05-7.57-24.16-17.14-29.69l-146.93-84.85c-2.69-1.55-5.22-2.33-7.48-2.39h0ZM436.44,173.84c-2.25.06-4.78.83-7.47,2.38l-146.93,84.85c-9.57,5.53-17.14,18.64-17.14,29.69v157.7c0,11.05,7.57,15.42,17.14,9.89l146.94-84.84c9.57-5.53,17.14-18.64,17.14-29.69v-157.7c0-7.94-3.91-12.43-9.66-12.28h0ZM201.3,260.43c10.74-.74,24.51,11.25,30.76,26.79,2.01,4.99,3.06,9.96,3.05,14.39.01,13.82-10.05,19.21-22.47,12.05-12.43-7.16-22.51-24.16-22.53-37.98,0-.02,0-.04,0-.06-.02-8.93,4.24-14.72,11.18-15.2ZM366.82,289.1h0c6.94.48,11.2,6.28,11.18,15.2-.01,13.82-10.1,30.82-22.53,37.98-12.41,7.15-22.46,1.78-22.47-12-.03-13.79,10.03-30.81,22.45-38.01,3.99-2.31,7.91-3.41,11.37-3.17ZM89.3,318.48c10.74-.74,24.51,11.25,30.76,26.79,2.01,4.99,3.06,9.96,3.05,14.39.01,13.82-10.05,19.21-22.47,12.05-12.43-7.16-22.51-24.16-22.53-37.98,0-.02,0-.04,0-.06-.02-8.93,4.24-14.72,11.18-15.2h0Z"/></svg>